<mxfile host="app.diagrams.net" modified="2020-05-14T14:26:25.485Z" agent="5.0 (Windows NT 10.0; Win64; x64) AppleWebKit/537.36 (KHTML, like Gecko) Chrome/81.0.4044.138 Safari/537.36" etag="ICgZtRNxmQEz6pCM2QDN" version="12.9.6" type="github">
  <diagram id="vDlWt7Z7Q67Bd8Shmli9" name="Page-1">
    <mxGraphModel dx="652" dy="364" grid="1" gridSize="10" guides="1" tooltips="1" connect="1" arrows="1" fold="1" page="1" pageScale="1" pageWidth="827" pageHeight="1169" math="0" shadow="0">
      <root>
        <mxCell id="0" />
        <mxCell id="1" parent="0" />
        <mxCell id="agv0tZ3WIR3FbHTIXBqI-1" value="" style="shape=cylinder;whiteSpace=wrap;html=1;boundedLbl=1;backgroundOutline=1;" vertex="1" parent="1">
          <mxGeometry x="100" y="329" width="60" height="80" as="geometry" />
        </mxCell>
        <mxCell id="agv0tZ3WIR3FbHTIXBqI-2" value="" style="shape=cylinder;whiteSpace=wrap;html=1;boundedLbl=1;backgroundOutline=1;fillColor=#CCCCCC;" vertex="1" parent="1">
          <mxGeometry x="190" y="429" width="60" height="80" as="geometry" />
        </mxCell>
        <mxCell id="agv0tZ3WIR3FbHTIXBqI-3" value="" style="shape=cylinder;whiteSpace=wrap;html=1;boundedLbl=1;backgroundOutline=1;fillColor=#dae8fc;strokeColor=#6c8ebf;" vertex="1" parent="1">
          <mxGeometry x="305" y="329" width="60" height="80" as="geometry" />
        </mxCell>
        <mxCell id="agv0tZ3WIR3FbHTIXBqI-4" value="" style="curved=1;endArrow=classic;html=1;exitX=0.25;exitY=1;exitDx=0;exitDy=0;entryX=0.5;entryY=0;entryDx=0;entryDy=0;dashed=1;dashPattern=1 1;" edge="1" parent="1" source="agv0tZ3WIR3FbHTIXBqI-17" target="agv0tZ3WIR3FbHTIXBqI-2">
          <mxGeometry width="50" height="50" relative="1" as="geometry">
            <mxPoint x="520" y="199" as="sourcePoint" />
            <mxPoint x="630" y="129" as="targetPoint" />
            <Array as="points">
              <mxPoint x="280" y="349" />
              <mxPoint x="220" y="379" />
            </Array>
          </mxGeometry>
        </mxCell>
        <mxCell id="agv0tZ3WIR3FbHTIXBqI-5" value="" style="shape=flexArrow;endArrow=classic;html=1;exitX=0.5;exitY=1;exitDx=0;exitDy=0;fillColor=#CCCCCC;strokeColor=#666666;" edge="1" parent="1" source="agv0tZ3WIR3FbHTIXBqI-1" target="agv0tZ3WIR3FbHTIXBqI-2">
          <mxGeometry width="50" height="50" relative="1" as="geometry">
            <mxPoint x="360" y="299" as="sourcePoint" />
            <mxPoint x="410" y="249" as="targetPoint" />
          </mxGeometry>
        </mxCell>
        <mxCell id="agv0tZ3WIR3FbHTIXBqI-8" value="" style="curved=1;endArrow=classic;html=1;fillColor=#CCCCCC;exitX=0.5;exitY=1;exitDx=0;exitDy=0;entryX=0.5;entryY=0;entryDx=0;entryDy=0;" edge="1" parent="1" target="agv0tZ3WIR3FbHTIXBqI-1">
          <mxGeometry width="50" height="50" relative="1" as="geometry">
            <mxPoint x="110" y="289" as="sourcePoint" />
            <mxPoint x="410" y="249" as="targetPoint" />
            <Array as="points">
              <mxPoint x="100" y="299" />
              <mxPoint x="150" y="309" />
            </Array>
          </mxGeometry>
        </mxCell>
        <mxCell id="agv0tZ3WIR3FbHTIXBqI-9" value="" style="html=1;strokeWidth=2;shape=manualInput;whiteSpace=wrap;rounded=1;size=26;arcSize=11;fillColor=#CCCCCC;" vertex="1" parent="1">
          <mxGeometry x="80" y="10" width="100" height="60" as="geometry" />
        </mxCell>
        <mxCell id="agv0tZ3WIR3FbHTIXBqI-10" value="apache" style="shape=parallelogram;perimeter=parallelogramPerimeter;whiteSpace=wrap;html=1;fillColor=#CCCCCC;" vertex="1" parent="1">
          <mxGeometry x="80" y="120" width="120" height="30" as="geometry" />
        </mxCell>
        <mxCell id="agv0tZ3WIR3FbHTIXBqI-11" value="" style="curved=1;endArrow=classic;html=1;fillColor=#CCCCCC;entryX=0.441;entryY=-0.018;entryDx=0;entryDy=0;entryPerimeter=0;" edge="1" parent="1" source="agv0tZ3WIR3FbHTIXBqI-9" target="agv0tZ3WIR3FbHTIXBqI-14">
          <mxGeometry width="50" height="50" relative="1" as="geometry">
            <mxPoint x="360" y="270" as="sourcePoint" />
            <mxPoint x="113.63636363636374" y="200" as="targetPoint" />
            <Array as="points">
              <mxPoint x="163" y="120" />
              <mxPoint x="120" y="130" />
            </Array>
          </mxGeometry>
        </mxCell>
        <mxCell id="agv0tZ3WIR3FbHTIXBqI-13" value="gateway" style="rounded=0;whiteSpace=wrap;html=1;fillColor=#dae8fc;strokeColor=#6c8ebf;" vertex="1" parent="1">
          <mxGeometry x="240" y="166" width="120" height="40" as="geometry" />
        </mxCell>
        <mxCell id="agv0tZ3WIR3FbHTIXBqI-14" value="bixxi" style="rounded=0;whiteSpace=wrap;html=1;fillColor=#CCCCCC;" vertex="1" parent="1">
          <mxGeometry x="60" y="229" width="120" height="60" as="geometry" />
        </mxCell>
        <mxCell id="agv0tZ3WIR3FbHTIXBqI-16" value="bixxi2" style="rounded=0;whiteSpace=wrap;html=1;fillColor=#CCCCCC;" vertex="1" parent="1">
          <mxGeometry x="200" y="229" width="50" height="60" as="geometry" />
        </mxCell>
        <mxCell id="agv0tZ3WIR3FbHTIXBqI-17" value="reporting" style="rounded=0;whiteSpace=wrap;html=1;fillColor=#dae8fc;strokeColor=#6c8ebf;" vertex="1" parent="1">
          <mxGeometry x="310" y="229" width="50" height="60" as="geometry" />
        </mxCell>
        <mxCell id="agv0tZ3WIR3FbHTIXBqI-18" value="" style="curved=1;endArrow=classic;html=1;exitX=0.25;exitY=1;exitDx=0;exitDy=0;entryX=1;entryY=0.5;entryDx=0;entryDy=0;dashed=1;dashPattern=1 1;" edge="1" parent="1" source="agv0tZ3WIR3FbHTIXBqI-17" target="agv0tZ3WIR3FbHTIXBqI-1">
          <mxGeometry width="50" height="50" relative="1" as="geometry">
            <mxPoint x="332.5" y="299" as="sourcePoint" />
            <mxPoint x="230" y="439" as="targetPoint" />
            <Array as="points">
              <mxPoint x="260" y="359" />
              <mxPoint x="220" y="329" />
            </Array>
          </mxGeometry>
        </mxCell>
        <mxCell id="agv0tZ3WIR3FbHTIXBqI-20" value="" style="curved=1;endArrow=classic;html=1;fillColor=#CCCCCC;entryX=0.5;entryY=0;entryDx=0;entryDy=0;" edge="1" parent="1" target="agv0tZ3WIR3FbHTIXBqI-17">
          <mxGeometry width="50" height="50" relative="1" as="geometry">
            <mxPoint x="159.375" y="71.08" as="sourcePoint" />
            <mxPoint x="129.92000000000007" y="219.99999999999997" as="targetPoint" />
            <Array as="points">
              <mxPoint x="180" y="121.08" />
              <mxPoint x="137" y="170" />
              <mxPoint x="190" y="170" />
              <mxPoint x="290" y="120" />
            </Array>
          </mxGeometry>
        </mxCell>
        <mxCell id="agv0tZ3WIR3FbHTIXBqI-21" value="" style="curved=1;endArrow=classic;html=1;fillColor=#CCCCCC;exitX=0.5;exitY=1;exitDx=0;exitDy=0;" edge="1" parent="1">
          <mxGeometry width="50" height="50" relative="1" as="geometry">
            <mxPoint x="330" y="289" as="sourcePoint" />
            <mxPoint x="350" y="329" as="targetPoint" />
            <Array as="points">
              <mxPoint x="320" y="299" />
              <mxPoint x="370" y="309" />
            </Array>
          </mxGeometry>
        </mxCell>
      </root>
    </mxGraphModel>
  </diagram>
</mxfile>
